<?xml version="1.0" encoding="UTF-8"?>
<!DOCTYPE svg PUBLIC "-//W3C//DTD SVG 1.1//EN" "http://www.w3.org/Graphics/SVG/1.1/DTD/svg11.dtd">
<svg xmlns="http://www.w3.org/2000/svg" version="1.1" width="566px" height="360px" style="shape-rendering:geometricPrecision; text-rendering:geometricPrecision; image-rendering:optimizeQuality; fill-rule:evenodd; clip-rule:evenodd" xmlns:xlink="http://www.w3.org/1999/xlink">
<g><path style="opacity:1" fill="#fefefe" d="M -0.5,-0.5 C 188.167,-0.5 376.833,-0.5 565.5,-0.5C 565.5,28.1667 565.5,56.8333 565.5,85.5C 564.163,148.539 562.83,211.706 561.5,275C 562.736,276.085 564.069,276.918 565.5,277.5C 565.5,304.833 565.5,332.167 565.5,359.5C 376.833,359.5 188.167,359.5 -0.5,359.5C -0.5,315.5 -0.5,271.5 -0.5,227.5C 0.403972,228.209 0.737305,229.209 0.5,230.5C 3.05099,239.279 7.38432,246.945 13.5,253.5C 13.5,253.833 13.5,254.167 13.5,254.5C 14.5,256.167 15.8333,257.5 17.5,258.5C 22.1295,263.151 27.4628,266.818 33.5,269.5C 37.3947,272.134 41.728,273.801 46.5,274.5C 48.1016,276.074 50.1016,276.741 52.5,276.5C 52.8333,276.5 53.1667,276.5 53.5,276.5C 55.5145,277.924 57.8478,278.59 60.5,278.5C 71.4236,279.642 82.4236,279.809 93.5,279C 99.0657,277.81 104.399,276.31 109.5,274.5C 111.898,274.741 113.898,274.074 115.5,272.5C 120.086,271.54 124.086,269.54 127.5,266.5C 140.031,259.889 148.698,249.889 153.5,236.5C 155.729,233.646 157.062,230.313 157.5,226.5C 157.5,225.167 157.5,223.833 157.5,222.5C 158.268,221.737 158.768,220.737 159,219.5C 159.5,175.168 159.667,130.835 159.5,86.5C 153.297,85.7973 146.964,85.1306 140.5,84.5C 137.687,85.2193 134.854,85.886 132,86.5C 130.7,88.4593 128.867,89.626 126.5,90C 125.748,90.6708 125.414,91.5041 125.5,92.5C 125.5,92.8333 125.5,93.1667 125.5,93.5C 120.958,96.9232 117.625,101.257 115.5,106.5C 114.076,108.515 113.41,110.848 113.5,113.5C 113.667,145.835 113.5,178.168 113,210.5C 111.397,215.143 109.897,219.809 108.5,224.5C 106.457,225.579 105.124,227.246 104.5,229.5C 91.8708,239.916 77.8708,242.25 62.5,236.5C 62.1667,236.5 61.8333,236.5 61.5,236.5C 55.8333,232.833 51.1667,228.167 47.5,222.5C 46.4404,218.82 45.2738,215.154 44,211.5C 43.8325,177.664 43.3325,143.998 42.5,110.5C 38.6342,96.8027 29.6342,88.9693 15.5,87C 10.1771,86.5006 4.84372,86.334 -0.5,86.5C -0.5,57.5 -0.5,28.5 -0.5,-0.5 Z"/></g>
<g><path style="opacity:1" fill="#e0eafd" d="M 159.5,86.5 C 159.167,86.5 158.833,86.5 158.5,86.5C 146.7,84.901 135.7,86.901 125.5,92.5C 125.414,91.5041 125.748,90.6708 126.5,90C 128.867,89.626 130.7,88.4593 132,86.5C 134.854,85.886 137.687,85.2193 140.5,84.5C 146.964,85.1306 153.297,85.7973 159.5,86.5 Z"/></g>
<g><path style="opacity:1" fill="#252ca2" d="M 158.5,86.5 C 158.5,87.1667 158.5,87.8333 158.5,88.5C 152.248,87.3765 145.915,87.2098 139.5,88C 134.876,90.1723 130.209,92.0056 125.5,93.5C 125.5,93.1667 125.5,92.8333 125.5,92.5C 135.7,86.901 146.7,84.901 158.5,86.5 Z"/></g>
<g><path style="opacity:1" fill="#2f36ae" d="M 274.5,87.5 C 274.5,87.8333 274.5,88.1667 274.5,88.5C 242.513,87.5691 210.513,87.2358 178.5,87.5C 178.5,150.5 178.5,213.5 178.5,276.5C 178.167,276.5 177.833,276.5 177.5,276.5C 177.5,213.167 177.5,149.833 177.5,86.5C 209.854,86.2031 242.187,86.5365 274.5,87.5 Z"/></g>
<g><path style="opacity:1" fill="#1e27a6" d="M 369.5,90.5 C 365.685,91.0815 362.351,90.2482 359.5,88C 348.505,87.5002 337.505,87.3335 326.5,87.5C 326.833,89.5 327.167,91.5 327.5,93.5C 325.834,91.8132 324.5,89.8132 323.5,87.5C 335.82,86.3341 348.153,86.1674 360.5,87C 364.005,87.1191 367.005,88.2857 369.5,90.5 Z"/></g>
<g><path style="opacity:1" fill="#1b23a0" d="M 472.5,87.5 C 472.5,87.1667 472.5,86.8333 472.5,86.5C 484.167,86.5 495.833,86.5 507.5,86.5C 507.771,88.3797 507.104,89.713 505.5,90.5C 505.5,89.5 505.5,88.5 505.5,87.5C 494.5,87.5 483.5,87.5 472.5,87.5 Z"/></g>
<g><path style="opacity:1" fill="#b0b3e6" d="M 274.5,88.5 C 274.5,88.1667 274.5,87.8333 274.5,87.5C 278.534,87.5165 282.201,88.5165 285.5,90.5C 281.833,89.8333 278.167,89.1667 274.5,88.5 Z"/></g>
<g><path style="opacity:1" fill="#535ab2" d="M 472.5,86.5 C 472.5,86.8333 472.5,87.1667 472.5,87.5C 470.194,87.9926 467.861,88.3259 465.5,88.5C 467.515,87.0762 469.848,86.4095 472.5,86.5 Z"/></g>
<g><path style="opacity:1" fill="#081fc3" d="M 288.5,92.5 C 289.911,94.539 291.911,95.539 294.5,95.5C 294.33,96.8221 294.663,97.9887 295.5,99C 298.939,100.09 302.273,101.256 305.5,102.5C 307.264,105.993 309.931,108.66 313.5,110.5C 313.343,111.873 313.51,113.207 314,114.5C 317.838,121.455 321.338,128.455 324.5,135.5C 325.434,143.111 325.767,150.778 325.5,158.5C 323.046,162.673 322.046,167.339 322.5,172.5C 322.672,173.492 322.338,174.158 321.5,174.5C 319.01,178.78 316.01,182.78 312.5,186.5C 311.265,186.721 310.265,187.388 309.5,188.5C 308.914,188.291 308.414,187.957 308,187.5C 307.805,189.207 307.805,190.874 308,192.5C 307,193.833 306,193.833 305,192.5C 304.935,194.883 304.102,195.55 302.5,194.5C 301.571,195.689 301.238,197.022 301.5,198.5C 299.027,198.088 297.694,199.088 297.5,201.5C 295.633,202.76 294.3,204.427 293.5,206.5C 293.53,209.852 294.863,212.518 297.5,214.5C 297.337,216.857 297.503,219.19 298,221.5C 298.893,220.289 299.726,220.289 300.5,221.5C 301.213,223.776 301.713,226.109 302,228.5C 303,227.167 304,227.167 305,228.5C 305.496,230.035 305.33,231.535 304.5,233C 305.619,234.876 307.286,235.709 309.5,235.5C 310.51,238.854 310.51,242.187 309.5,245.5C 310.123,247.814 310.456,247.481 310.5,244.5C 313.121,244.477 314.455,245.811 314.5,248.5C 312.624,250.048 311.624,252.048 311.5,254.5C 312.833,254.5 314.167,254.5 315.5,254.5C 315.281,253.325 315.614,252.325 316.5,251.5C 319.419,256.64 322.252,261.973 325,267.5C 325.671,268.252 326.504,268.586 327.5,268.5C 327.5,270.833 327.5,273.167 327.5,275.5C 316.813,275.832 306.146,275.499 295.5,274.5C 290.978,272.809 287.145,270.143 284,266.5C 283.421,264.351 282.921,262.185 282.5,260C 282.495,257.837 283.495,256.337 285.5,255.5C 285,255.167 284.5,254.833 284,254.5C 282.433,255.856 280.6,256.523 278.5,256.5C 278.222,259.29 278.889,261.79 280.5,264C 280.167,264.5 279.833,265 279.5,265.5C 278.234,263.596 276.567,262.263 274.5,261.5C 274.5,261.167 274.5,260.833 274.5,260.5C 273.102,256.705 271.436,253.039 269.5,249.5C 269.043,248.702 268.376,248.369 267.5,248.5C 267.5,248.167 267.5,247.833 267.5,247.5C 266.986,245.634 266.32,243.8 265.5,242C 267.153,239.589 266.487,238.422 263.5,238.5C 264.64,235.975 265.307,233.308 265.5,230.5C 264.5,230.5 263.5,230.5 262.5,230.5C 262.719,231.675 262.386,232.675 261.5,233.5C 260.223,231.37 260.723,229.704 263,228.5C 263.813,226.564 264.313,224.564 264.5,222.5C 263.5,222.5 262.5,222.5 261.5,222.5C 258.779,230.754 257.445,230.421 257.5,221.5C 256.5,221.5 255.5,221.5 254.5,221.5C 254.5,220.167 254.5,218.833 254.5,217.5C 251.654,217.191 250.154,215.525 250,212.5C 249.329,211.748 248.496,211.414 247.5,211.5C 245.012,209.612 242.012,208.945 238.5,209.5C 238.5,208.167 238.5,206.833 238.5,205.5C 237.5,205.5 236.5,205.5 235.5,205.5C 235.5,206.833 235.5,208.167 235.5,209.5C 231.818,209.335 228.152,209.501 224.5,210C 223.944,210.383 223.611,210.883 223.5,211.5C 223.5,211.833 223.5,212.167 223.5,212.5C 222.744,226.347 222.078,240.347 221.5,254.5C 220.623,258.816 218.623,262.482 215.5,265.5C 213.833,265.5 212.167,265.5 210.5,265.5C 210.5,266.833 210.5,268.167 210.5,269.5C 208.833,269.5 207.167,269.5 205.5,269.5C 200.334,269.75 195,269.75 189.5,269.5C 189.833,211.496 189.5,153.496 188.5,95.5C 187.667,153.83 187.167,212.164 187,270.5C 185.676,273.244 183.509,274.577 180.5,274.5C 181.485,214.523 181.818,154.523 181.5,94.5C 183.5,94.5 185.5,94.5 187.5,94.5C 187.261,92.5328 187.594,90.6995 188.5,89C 212.833,88.3333 237.167,88.3333 261.5,89C 269.251,89.389 276.917,90.389 284.5,92C 282.604,93.0646 282.437,93.8979 284,94.5C 285.3,93.2927 286.8,92.6261 288.5,92.5 Z"/></g>
<g><path style="opacity:1" fill="#081fc3" d="M 369.5,90.5 C 379.981,96.0836 386.648,104.75 389.5,116.5C 390.686,121.89 392.186,127.224 394,132.5C 396.402,134.372 398.569,136.372 400.5,138.5C 401.167,138.5 401.5,138.833 401.5,139.5C 401.025,142.313 402.025,144.313 404.5,145.5C 405.828,148.497 407.161,151.497 408.5,154.5C 408.365,159.343 410.032,163.343 413.5,166.5C 415.396,167.466 417.396,167.799 419.5,167.5C 419.343,168.873 419.51,170.207 420,171.5C 421,172.833 422,172.833 423,171.5C 422.005,168.625 421.338,165.625 421,162.5C 422.673,160.083 424.506,160.083 426.5,162.5C 427.429,161.311 427.762,159.978 427.5,158.5C 430.797,158.671 431.131,158.005 428.5,156.5C 427.264,157.246 425.93,157.579 424.5,157.5C 424.704,154.482 425.037,151.482 425.5,148.5C 426.833,148.5 428.167,148.5 429.5,148.5C 429.421,145.729 429.921,143.063 431,140.5C 431.535,142.271 432.369,142.604 433.5,141.5C 431.597,137.919 432.597,135.752 436.5,135C 437.167,133.667 437.833,132.333 438.5,131C 437.62,129.644 437.286,128.144 437.5,126.5C 439.2,126.626 440.7,127.293 442,128.5C 447.003,124.751 446.503,123.751 440.5,125.5C 440.34,123.801 440.506,122.134 441,120.5C 443.448,117.3 444.948,113.633 445.5,109.5C 446.707,108.811 448.041,108.645 449.5,109C 447.923,103.72 449.923,100.553 455.5,99.5C 455.5,97.8333 455.5,96.1667 455.5,94.5C 458.494,92.0002 461.827,90.0002 465.5,88.5C 467.861,88.3259 470.194,87.9926 472.5,87.5C 483.5,87.5 494.5,87.5 505.5,87.5C 505.5,88.5 505.5,89.5 505.5,90.5C 504.737,92.3684 503.737,94.0351 502.5,95.5C 497.372,96.3101 495.372,99.3101 496.5,104.5C 495.178,104.67 494.011,104.337 493,103.5C 492.267,108.541 491.434,113.541 490.5,118.5C 489.662,118.842 489.328,119.508 489.5,120.5C 487.241,121.344 486.241,123.011 486.5,125.5C 486.5,125.833 486.5,126.167 486.5,126.5C 485.094,126.973 484.427,127.973 484.5,129.5C 484.672,130.492 484.338,131.158 483.5,131.5C 480.152,134.222 477.818,137.556 476.5,141.5C 474.5,141.5 472.5,141.5 470.5,141.5C 470.5,142.5 470.5,143.5 470.5,144.5C 471.5,144.5 472.5,144.5 473.5,144.5C 473.306,147.33 472.639,149.996 471.5,152.5C 470.325,152.719 469.325,152.386 468.5,151.5C 469.681,149.802 469.681,148.135 468.5,146.5C 464.347,149.93 463.68,153.93 466.5,158.5C 466.456,161.41 465.29,162.41 463,161.5C 462.486,165.536 460.32,168.203 456.5,169.5C 455.742,175.065 454.242,180.398 452,185.5C 450.647,184.315 449.48,182.981 448.5,181.5C 448.167,182.333 447.833,183.167 447.5,184C 448.955,186.363 449.455,188.863 449,191.5C 446.897,194.72 444.564,197.72 442,200.5C 441.498,203.513 440.998,206.513 440.5,209.5C 440.5,210.167 440.167,210.5 439.5,210.5C 438.5,210.5 437.5,210.5 436.5,210.5C 436.66,208.801 436.494,207.134 436,205.5C 433.984,206.955 433.151,208.955 433.5,211.5C 434.5,211.5 435.5,211.5 436.5,211.5C 436.5,215.167 436.5,218.833 436.5,222.5C 435.5,222.5 434.5,222.5 433.5,222.5C 433.5,238.5 433.5,254.5 433.5,270.5C 432.022,270.238 430.689,270.571 429.5,271.5C 431.396,272.466 433.396,272.799 435.5,272.5C 435.5,273.5 435.5,274.5 435.5,275.5C 422.15,275.833 408.817,275.499 395.5,274.5C 394.846,257.039 394.18,239.706 393.5,222.5C 393.813,218.958 393.479,215.625 392.5,212.5C 390.799,209.147 389.132,205.814 387.5,202.5C 386.269,199.039 384.769,195.706 383,192.5C 382.503,189.854 382.336,187.187 382.5,184.5C 381.178,184.33 380.011,184.663 379,185.5C 379.351,183.114 379.185,180.781 378.5,178.5C 376.374,177.63 374.374,176.63 372.5,175.5C 372.657,174.127 372.49,172.793 372,171.5C 367.659,164.821 363.825,157.821 360.5,150.5C 360.43,148.334 361.096,148.001 362.5,149.5C 364.009,147.344 365.009,145.01 365.5,142.5C 364.5,142.5 363.5,142.5 362.5,142.5C 362.665,138.818 362.499,135.152 362,131.5C 359.106,130.385 357.939,131.552 358.5,135C 359.406,139.147 359.573,143.314 359,147.5C 358.241,145.937 357.074,144.937 355.5,144.5C 355.167,143.833 354.833,143.167 354.5,142.5C 354.663,140.143 354.497,137.81 354,135.5C 348.642,131.128 345.475,125.461 344.5,118.5C 343.5,118.5 342.5,118.5 341.5,118.5C 340.601,113.236 338.434,108.57 335,104.5C 334.667,102.5 334.333,100.5 334,98.5C 333.667,98.8333 333.333,99.1667 333,99.5C 331.588,97.3143 329.755,95.6476 327.5,94.5C 327.5,94.1667 327.5,93.8333 327.5,93.5C 327.167,91.5 326.833,89.5 326.5,87.5C 337.505,87.3335 348.505,87.5002 359.5,88C 362.351,90.2482 365.685,91.0815 369.5,90.5 Z"/></g>
<g><path style="opacity:1" fill="#081fc2" d="M -0.5,86.5 C 4.84372,86.334 10.1771,86.5006 15.5,87C 29.6342,88.9693 38.6342,96.8027 42.5,110.5C 42.3333,144.502 42.5,178.502 43,212.5C 43.8523,216.264 45.3523,219.597 47.5,222.5C 47.8003,225.269 48.8003,227.769 50.5,230C 48.9972,231.921 48.3305,234.088 48.5,236.5C 51.0488,236.559 53.0488,235.559 54.5,233.5C 56.6621,235.02 58.9954,236.02 61.5,236.5C 61.8333,236.5 62.1667,236.5 62.5,236.5C 64.5721,238.076 66.5721,239.909 68.5,242C 74.1959,242.83 79.8625,242.663 85.5,241.5C 85.7093,240.914 86.0426,240.414 86.5,240C 92.1482,239.062 97.4815,237.228 102.5,234.5C 103.456,232.925 104.123,231.258 104.5,229.5C 105.124,227.246 106.457,225.579 108.5,224.5C 110.975,223.313 111.975,221.313 111.5,218.5C 112.5,218.5 113.5,218.5 114.5,218.5C 114.5,183.5 114.5,148.5 114.5,113.5C 114.263,112.209 114.596,111.209 115.5,110.5C 116.699,106.408 118.699,102.575 121.5,99C 123.113,98.9115 124.28,99.7448 125,101.5C 125.029,98.6741 125.195,96.0074 125.5,93.5C 130.209,92.0056 134.876,90.1723 139.5,88C 145.915,87.2098 152.248,87.3765 158.5,88.5C 158.5,90.5 158.5,92.5 158.5,94.5C 157.667,131.664 157.167,168.998 157,206.5C 156.493,214.553 155.66,222.553 154.5,230.5C 153.85,232.435 153.517,234.435 153.5,236.5C 148.698,249.889 140.031,259.889 127.5,266.5C 121.807,265.346 117.807,267.346 115.5,272.5C 113.898,274.074 111.898,274.741 109.5,274.5C 100.338,276.733 91.0045,277.733 81.5,277.5C 76.8333,277.167 72.1667,276.833 67.5,276.5C 68.4761,274.13 67.4761,273.13 64.5,273.5C 61.389,275.185 58.0556,275.685 54.5,275C 47.3513,273.898 40.3513,272.064 33.5,269.5C 32.8689,266.746 31.2022,264.912 28.5,264C 29.5536,262.612 29.7203,261.112 29,259.5C 28.2545,260.99 27.0879,261.99 25.5,262.5C 23.0678,260.744 20.4012,259.41 17.5,258.5C 17.5123,255.858 16.179,254.525 13.5,254.5C 13.5,254.167 13.5,253.833 13.5,253.5C 10.9856,249.115 8.81891,244.448 7,239.5C 6.66667,239.833 6.33333,240.167 6,240.5C 4.6337,236.704 2.80037,233.37 0.5,230.5C 0.737305,229.209 0.403972,228.209 -0.5,227.5C -0.5,180.5 -0.5,133.5 -0.5,86.5 Z"/></g>
<g><path style="opacity:1" fill="#5b68cb" d="M 158.5,86.5 C 158.833,86.5 159.167,86.5 159.5,86.5C 159.667,130.835 159.5,175.168 159,219.5C 158.768,220.737 158.268,221.737 157.5,222.5C 158.461,179.848 158.795,137.182 158.5,94.5C 158.5,92.5 158.5,90.5 158.5,88.5C 158.5,87.8333 158.5,87.1667 158.5,86.5 Z"/></g>
<g><path style="opacity:1" fill="#101eae" d="M 158.5,94.5 C 158.795,137.182 158.461,179.848 157.5,222.5C 157.5,223.833 157.5,225.167 157.5,226.5C 156.143,227.59 155.143,228.924 154.5,230.5C 155.66,222.553 156.493,214.553 157,206.5C 157.167,168.998 157.667,131.664 158.5,94.5 Z"/></g>
<g><path style="opacity:1" fill="#0a20be" d="M 274.5,88.5 C 278.167,89.1667 281.833,89.8333 285.5,90.5C 286.5,91.1667 287.5,91.8333 288.5,92.5C 286.8,92.6261 285.3,93.2927 284,94.5C 282.437,93.8979 282.604,93.0646 284.5,92C 276.917,90.389 269.251,89.389 261.5,89C 237.167,88.3333 212.833,88.3333 188.5,89C 187.594,90.6995 187.261,92.5328 187.5,94.5C 185.5,94.5 183.5,94.5 181.5,94.5C 181.818,154.523 181.485,214.523 180.5,274.5C 183.509,274.577 185.676,273.244 187,270.5C 187.167,212.164 187.667,153.83 188.5,95.5C 189.5,153.496 189.833,211.496 189.5,269.5C 195,269.75 200.334,269.75 205.5,269.5C 205.5,270.833 205.5,272.167 205.5,273.5C 201.313,273.395 197.313,274.228 193.5,276C 188.511,276.499 183.511,276.666 178.5,276.5C 178.5,213.5 178.5,150.5 178.5,87.5C 210.513,87.2358 242.513,87.5691 274.5,88.5 Z"/></g>
<g><path style="opacity:1" fill="#bfc2ce" d="M 565.5,85.5 C 565.5,149.5 565.5,213.5 565.5,277.5C 564.069,276.918 562.736,276.085 561.5,275C 562.83,211.706 564.163,148.539 565.5,85.5 Z"/></g>
<g><path style="opacity:1" fill="#2a30b0" d="M 125.5,93.5 C 125.195,96.0074 125.029,98.6741 125,101.5C 124.28,99.7448 123.113,98.9115 121.5,99C 118.699,102.575 116.699,106.408 115.5,110.5C 115.5,109.167 115.5,107.833 115.5,106.5C 117.625,101.257 120.958,96.9232 125.5,93.5 Z"/></g>
<g><path style="opacity:1" fill="#1f27a4" d="M 288.5,92.5 C 294.954,94.5579 300.621,97.8913 305.5,102.5C 302.273,101.256 298.939,100.09 295.5,99C 294.663,97.9887 294.33,96.8221 294.5,95.5C 291.911,95.539 289.911,94.539 288.5,92.5 Z"/></g>
<g><path style="opacity:1" fill="#2b30b0" d="M 327.5,94.5 C 329.755,95.6476 331.588,97.3143 333,99.5C 333.333,99.1667 333.667,98.8333 334,98.5C 334.333,100.5 334.667,102.5 335,104.5C 338.434,108.57 340.601,113.236 341.5,118.5C 339.355,115.567 337.188,112.567 335,109.5C 333.001,104.168 330.501,99.1679 327.5,94.5 Z"/></g>
<g><path style="opacity:1" fill="#212ab5" d="M 502.5,95.5 C 499.219,103.716 495.219,111.383 490.5,118.5C 491.434,113.541 492.267,108.541 493,103.5C 494.011,104.337 495.178,104.67 496.5,104.5C 495.372,99.3101 497.372,96.3101 502.5,95.5 Z"/></g>
<g><path style="opacity:1" fill="#3637ab" d="M 305.5,102.5 C 306.473,102.987 307.473,103.487 308.5,104C 310.288,106.184 311.954,108.351 313.5,110.5C 309.931,108.66 307.264,105.993 305.5,102.5 Z"/></g>
<g><path style="opacity:1" fill="#3338b0" d="M 455.5,94.5 C 455.5,96.1667 455.5,97.8333 455.5,99.5C 449.923,100.553 447.923,103.72 449.5,109C 448.041,108.645 446.707,108.811 445.5,109.5C 447.242,103.428 450.575,98.4276 455.5,94.5 Z"/></g>
<g><path style="opacity:1" fill="#626ec8" d="M 115.5,106.5 C 115.5,107.833 115.5,109.167 115.5,110.5C 114.596,111.209 114.263,112.209 114.5,113.5C 114.167,113.5 113.833,113.5 113.5,113.5C 113.41,110.848 114.076,108.515 115.5,106.5 Z"/></g>
<g><path style="opacity:1" fill="#2b32af" d="M 313.5,110.5 C 319.664,117.63 323.33,125.964 324.5,135.5C 321.338,128.455 317.838,121.455 314,114.5C 313.51,113.207 313.343,111.873 313.5,110.5 Z"/></g>
<g><path style="opacity:1" fill="#1d27a8" d="M 113.5,113.5 C 113.833,113.5 114.167,113.5 114.5,113.5C 114.5,148.5 114.5,183.5 114.5,218.5C 113.5,218.5 112.5,218.5 111.5,218.5C 111.975,221.313 110.975,223.313 108.5,224.5C 109.897,219.809 111.397,215.143 113,210.5C 113.5,178.168 113.667,145.835 113.5,113.5 Z"/></g>
<g><path style="opacity:1" fill="#4346ab" d="M 489.5,120.5 C 488.89,122.434 487.89,124.101 486.5,125.5C 486.241,123.011 487.241,121.344 489.5,120.5 Z"/></g>
<g><path style="opacity:1" fill="#fcfdfd" d="M 253.5,124.5 C 258.837,124.613 263.837,125.946 268.5,128.5C 270.167,130.833 272.167,132.833 274.5,134.5C 275.655,137.328 276.989,139.995 278.5,142.5C 280.638,157.569 274.971,168.235 261.5,174.5C 258.833,174.5 256.167,174.5 253.5,174.5C 243.833,174.5 234.167,174.5 224.5,174.5C 224.5,157.833 224.5,141.167 224.5,124.5C 234.167,124.5 243.833,124.5 253.5,124.5 Z"/></g>
<g><path style="opacity:1" fill="#242ca5" d="M 42.5,110.5 C 43.3325,143.998 43.8325,177.664 44,211.5C 45.2738,215.154 46.4404,218.82 47.5,222.5C 45.3523,219.597 43.8523,216.264 43,212.5C 42.5,178.502 42.3333,144.502 42.5,110.5 Z"/></g>
<g><path style="opacity:1" fill="#2433a8" d="M 223.5,124.5 C 223.5,141.5 223.5,158.5 223.5,175.5C 233.5,175.5 243.5,175.5 253.5,175.5C 242.993,176.823 232.326,176.823 221.5,175.5C 222.153,158.372 222.82,141.372 223.5,124.5 Z"/></g>
<g><path style="opacity:1" fill="#b0bfef" d="M 253.5,124.5 C 243.833,124.5 234.167,124.5 224.5,124.5C 224.5,141.167 224.5,157.833 224.5,174.5C 234.167,174.5 243.833,174.5 253.5,174.5C 253.5,174.833 253.5,175.167 253.5,175.5C 243.5,175.5 233.5,175.5 223.5,175.5C 223.5,158.5 223.5,141.5 223.5,124.5C 233.5,123.167 243.5,123.167 253.5,124.5 Z"/></g>
<g><path style="opacity:1" fill="#282eae" d="M 389.5,116.5 C 393.675,123.516 397.341,130.849 400.5,138.5C 398.569,136.372 396.402,134.372 394,132.5C 392.186,127.224 390.686,121.89 389.5,116.5 Z"/></g>
<g><path style="opacity:1" fill="#8a96e1" d="M 486.5,126.5 C 486.573,128.027 485.906,129.027 484.5,129.5C 484.427,127.973 485.094,126.973 486.5,126.5 Z"/></g>
<g><path style="opacity:1" fill="#3b3cb8" d="M 268.5,128.5 C 269.978,128.238 271.311,128.571 272.5,129.5C 272.968,131.134 273.968,132.3 275.5,133C 274.944,133.383 274.611,133.883 274.5,134.5C 272.167,132.833 270.167,130.833 268.5,128.5 Z"/></g>
<g><path style="opacity:1" fill="#1725b8" d="M 372.5,175.5 C 366.595,165.362 360.929,155.029 355.5,144.5C 357.074,144.937 358.241,145.937 359,147.5C 359.573,143.314 359.406,139.147 358.5,135C 357.939,131.552 359.106,130.385 362,131.5C 362.499,135.152 362.665,138.818 362.5,142.5C 363.5,142.5 364.5,142.5 365.5,142.5C 365.009,145.01 364.009,147.344 362.5,149.5C 361.096,148.001 360.43,148.334 360.5,150.5C 363.825,157.821 367.659,164.821 372,171.5C 372.49,172.793 372.657,174.127 372.5,175.5 Z"/></g>
<g><path style="opacity:1" fill="#272cb6" d="M 445.5,109.5 C 444.948,113.633 443.448,117.3 441,120.5C 440.506,122.134 440.34,123.801 440.5,125.5C 446.503,123.751 447.003,124.751 442,128.5C 440.7,127.293 439.2,126.626 437.5,126.5C 437.286,128.144 437.62,129.644 438.5,131C 437.833,132.333 437.167,133.667 436.5,135C 432.597,135.752 431.597,137.919 433.5,141.5C 432.369,142.604 431.535,142.271 431,140.5C 429.921,143.063 429.421,145.729 429.5,148.5C 428.167,148.5 426.833,148.5 425.5,148.5C 431.43,135.069 438.097,122.069 445.5,109.5 Z"/></g>
<g><path style="opacity:1" fill="#232bad" d="M 341.5,118.5 C 342.5,118.5 343.5,118.5 344.5,118.5C 345.475,125.461 348.642,131.128 354,135.5C 354.497,137.81 354.663,140.143 354.5,142.5C 349.338,134.99 345.004,126.99 341.5,118.5 Z"/></g>
<g><path style="opacity:1" fill="#242db4" d="M 483.5,131.5 C 479.749,138.671 475.749,145.671 471.5,152.5C 472.639,149.996 473.306,147.33 473.5,144.5C 472.5,144.5 471.5,144.5 470.5,144.5C 470.5,143.5 470.5,142.5 470.5,141.5C 472.5,141.5 474.5,141.5 476.5,141.5C 477.818,137.556 480.152,134.222 483.5,131.5 Z"/></g>
<g><path style="opacity:1" fill="#5056b7" d="M 401.5,139.5 C 402.492,141.456 403.492,143.456 404.5,145.5C 402.025,144.313 401.025,142.313 401.5,139.5 Z"/></g>
<g><path style="opacity:1" fill="#1d28b0" d="M 278.5,142.5 C 279.117,142.611 279.617,142.944 280,143.5C 280.767,150.965 280.1,158.298 278,165.5C 274.18,166.798 272.014,169.465 271.5,173.5C 268.14,173.616 264.807,173.949 261.5,174.5C 274.971,168.235 280.638,157.569 278.5,142.5 Z"/></g>
<g><path style="opacity:1" fill="#222bb5" d="M 425.5,148.5 C 425.037,151.482 424.704,154.482 424.5,157.5C 425.93,157.579 427.264,157.246 428.5,156.5C 431.131,158.005 430.797,158.671 427.5,158.5C 427.762,159.978 427.429,161.311 426.5,162.5C 424.506,160.083 422.673,160.083 421,162.5C 421.338,165.625 422.005,168.625 423,171.5C 422,172.833 421,172.833 420,171.5C 419.51,170.207 419.343,168.873 419.5,167.5C 417.396,167.799 415.396,167.466 413.5,166.5C 410.032,163.343 408.365,159.343 408.5,154.5C 411.059,157.933 413.392,161.599 415.5,165.5C 419.097,159.97 422.43,154.304 425.5,148.5 Z"/></g>
<g><path style="opacity:1" fill="#474cb4" d="M 325.5,158.5 C 325.419,163.477 324.419,168.143 322.5,172.5C 322.046,167.339 323.046,162.673 325.5,158.5 Z"/></g>
<g><path style="opacity:1" fill="#1927b3" d="M 471.5,152.5 C 460.971,171.449 450.637,190.449 440.5,209.5C 440.998,206.513 441.498,203.513 442,200.5C 444.564,197.72 446.897,194.72 449,191.5C 449.455,188.863 448.955,186.363 447.5,184C 447.833,183.167 448.167,182.333 448.5,181.5C 449.48,182.981 450.647,184.315 452,185.5C 454.242,180.398 455.742,175.065 456.5,169.5C 460.32,168.203 462.486,165.536 463,161.5C 465.29,162.41 466.456,161.41 466.5,158.5C 463.68,153.93 464.347,149.93 468.5,146.5C 469.681,148.135 469.681,149.802 468.5,151.5C 469.325,152.386 470.325,152.719 471.5,152.5 Z"/></g>
<g><path style="opacity:1" fill="#2c35a3" d="M 321.5,174.5 C 319.772,180.293 316.772,185.293 312.5,189.5C 312.5,188.5 312.5,187.5 312.5,186.5C 316.01,182.78 319.01,178.78 321.5,174.5 Z"/></g>
<g><path style="opacity:1" fill="#202ab3" d="M 372.5,175.5 C 374.374,176.63 376.374,177.63 378.5,178.5C 379.185,180.781 379.351,183.114 379,185.5C 380.011,184.663 381.178,184.33 382.5,184.5C 382.336,187.187 382.503,189.854 383,192.5C 384.769,195.706 386.269,199.039 387.5,202.5C 381.755,194.019 376.755,185.019 372.5,175.5 Z"/></g>
<g><path style="opacity:1" fill="#1925b2" d="M 312.5,186.5 C 312.5,187.5 312.5,188.5 312.5,189.5C 308.421,194.699 303.421,198.699 297.5,201.5C 297.694,199.088 299.027,198.088 301.5,198.5C 301.238,197.022 301.571,195.689 302.5,194.5C 304.102,195.55 304.935,194.883 305,192.5C 306,193.833 307,193.833 308,192.5C 307.805,190.874 307.805,189.207 308,187.5C 308.414,187.957 308.914,188.291 309.5,188.5C 310.265,187.388 311.265,186.721 312.5,186.5 Z"/></g>
<g><path style="opacity:1" fill="#1120ae" d="M 247.5,211.5 C 239.5,211.5 231.5,211.5 223.5,211.5C 223.611,210.883 223.944,210.383 224.5,210C 228.152,209.501 231.818,209.335 235.5,209.5C 235.5,208.167 235.5,206.833 235.5,205.5C 236.5,205.5 237.5,205.5 238.5,205.5C 238.5,206.833 238.5,208.167 238.5,209.5C 242.012,208.945 245.012,209.612 247.5,211.5 Z"/></g>
<g><path style="opacity:1" fill="#3b3cb1" d="M 293.5,206.5 C 296.137,208.482 297.47,211.148 297.5,214.5C 294.863,212.518 293.53,209.852 293.5,206.5 Z"/></g>
<g><path style="opacity:1" fill="#abb8f4" d="M 223.5,211.5 C 231.5,211.5 239.5,211.5 247.5,211.5C 247.5,211.833 247.5,212.167 247.5,212.5C 239.833,212.5 232.167,212.5 224.5,212.5C 224.828,224.678 224.495,236.678 223.5,248.5C 223.5,236.5 223.5,224.5 223.5,212.5C 223.5,212.167 223.5,211.833 223.5,211.5 Z"/></g>
<g><path style="opacity:1" fill="#2732ae" d="M 223.5,212.5 C 223.5,224.5 223.5,236.5 223.5,248.5C 223.741,250.898 223.074,252.898 221.5,254.5C 222.078,240.347 222.744,226.347 223.5,212.5 Z"/></g>
<g><path style="opacity:1" fill="#0922b8" d="M 439.5,210.5 C 439.167,211.167 438.833,211.833 438.5,212.5C 437.668,231.662 437.168,250.996 437,270.5C 436.802,272.382 436.302,274.048 435.5,275.5C 435.5,274.5 435.5,273.5 435.5,272.5C 433.396,272.799 431.396,272.466 429.5,271.5C 430.689,270.571 432.022,270.238 433.5,270.5C 433.5,254.5 433.5,238.5 433.5,222.5C 434.5,222.5 435.5,222.5 436.5,222.5C 436.5,218.833 436.5,215.167 436.5,211.5C 435.5,211.5 434.5,211.5 433.5,211.5C 433.151,208.955 433.984,206.955 436,205.5C 436.494,207.134 436.66,208.801 436.5,210.5C 437.5,210.5 438.5,210.5 439.5,210.5 Z"/></g>
<g><path style="opacity:1" fill="#272eb4" d="M 297.5,214.5 C 298.458,214.953 299.292,215.619 300,216.5C 303.193,222.886 306.36,229.22 309.5,235.5C 307.286,235.709 305.619,234.876 304.5,233C 305.33,231.535 305.496,230.035 305,228.5C 304,227.167 303,227.167 302,228.5C 301.713,226.109 301.213,223.776 300.5,221.5C 299.726,220.289 298.893,220.289 298,221.5C 297.503,219.19 297.337,216.857 297.5,214.5 Z"/></g>
<g><path style="opacity:1" fill="#1523b7" d="M 247.5,212.5 C 247.5,212.167 247.5,211.833 247.5,211.5C 248.496,211.414 249.329,211.748 250,212.5C 250.154,215.525 251.654,217.191 254.5,217.5C 254.5,218.833 254.5,220.167 254.5,221.5C 255.5,221.5 256.5,221.5 257.5,221.5C 257.445,230.421 258.779,230.754 261.5,222.5C 262.5,222.5 263.5,222.5 264.5,222.5C 264.313,224.564 263.813,226.564 263,228.5C 260.723,229.704 260.223,231.37 261.5,233.5C 262.386,232.675 262.719,231.675 262.5,230.5C 263.5,230.5 264.5,230.5 265.5,230.5C 265.307,233.308 264.64,235.975 263.5,238.5C 266.487,238.422 267.153,239.589 265.5,242C 266.32,243.8 266.986,245.634 267.5,247.5C 260.58,235.996 253.914,224.329 247.5,212.5 Z"/></g>
<g><path style="opacity:1" fill="#1e27b5" d="M 47.5,222.5 C 51.1667,228.167 55.8333,232.833 61.5,236.5C 58.9954,236.02 56.6621,235.02 54.5,233.5C 53.0488,235.559 51.0488,236.559 48.5,236.5C 48.3305,234.088 48.9972,231.921 50.5,230C 48.8003,227.769 47.8003,225.269 47.5,222.5 Z"/></g>
<g><path style="opacity:1" fill="#373ba5" d="M 157.5,226.5 C 157.062,230.313 155.729,233.646 153.5,236.5C 153.517,234.435 153.85,232.435 154.5,230.5C 155.143,228.924 156.143,227.59 157.5,226.5 Z"/></g>
<g><path style="opacity:1" fill="#1d27ad" d="M 104.5,229.5 C 104.123,231.258 103.456,232.925 102.5,234.5C 97.4815,237.228 92.1482,239.062 86.5,240C 86.0426,240.414 85.7093,240.914 85.5,241.5C 79.8625,242.663 74.1959,242.83 68.5,242C 66.5721,239.909 64.5721,238.076 62.5,236.5C 77.8708,242.25 91.8708,239.916 104.5,229.5 Z"/></g>
<g><path style="opacity:1" fill="#2931b1" d="M 0.5,230.5 C 2.80037,233.37 4.6337,236.704 6,240.5C 6.33333,240.167 6.66667,239.833 7,239.5C 8.81891,244.448 10.9856,249.115 13.5,253.5C 7.38432,246.945 3.05099,239.279 0.5,230.5 Z"/></g>
<g><path style="opacity:1" fill="#242cb4" d="M 309.5,235.5 C 316.259,246.012 322.259,257.012 327.5,268.5C 326.504,268.586 325.671,268.252 325,267.5C 322.252,261.973 319.419,256.64 316.5,251.5C 315.614,252.325 315.281,253.325 315.5,254.5C 314.167,254.5 312.833,254.5 311.5,254.5C 311.624,252.048 312.624,250.048 314.5,248.5C 314.455,245.811 313.121,244.477 310.5,244.5C 310.456,247.481 310.123,247.814 309.5,245.5C 310.51,242.187 310.51,238.854 309.5,235.5 Z"/></g>
<g><path style="opacity:1" fill="#2730a8" d="M 267.5,248.5 C 268.376,248.369 269.043,248.702 269.5,249.5C 271.436,253.039 273.102,256.705 274.5,260.5C 271.372,257.021 269.039,253.021 267.5,248.5 Z"/></g>
<g><path style="opacity:1" fill="#494fb0" d="M 13.5,254.5 C 16.179,254.525 17.5123,255.858 17.5,258.5C 15.8333,257.5 14.5,256.167 13.5,254.5 Z"/></g>
<g><path style="opacity:1" fill="#2930b1" d="M 17.5,258.5 C 20.4012,259.41 23.0678,260.744 25.5,262.5C 27.0879,261.99 28.2545,260.99 29,259.5C 29.7203,261.112 29.5536,262.612 28.5,264C 31.2022,264.912 32.8689,266.746 33.5,269.5C 27.4628,266.818 22.1295,263.151 17.5,258.5 Z"/></g>
<g><path style="opacity:1" fill="#1b26b1" d="M 327.5,268.5 C 329.588,270.336 330.921,272.669 331.5,275.5C 319.678,276.495 307.678,276.828 295.5,276.5C 286.128,274.662 279.128,269.662 274.5,261.5C 276.567,262.263 278.234,263.596 279.5,265.5C 279.833,265 280.167,264.5 280.5,264C 278.889,261.79 278.222,259.29 278.5,256.5C 280.6,256.523 282.433,255.856 284,254.5C 284.5,254.833 285,255.167 285.5,255.5C 283.495,256.337 282.495,257.837 282.5,260C 282.921,262.185 283.421,264.351 284,266.5C 287.145,270.143 290.978,272.809 295.5,274.5C 306.146,275.499 316.813,275.832 327.5,275.5C 327.5,273.167 327.5,270.833 327.5,268.5 Z"/></g>
<g><path style="opacity:1" fill="#2229ae" d="M 127.5,266.5 C 124.086,269.54 120.086,271.54 115.5,272.5C 117.807,267.346 121.807,265.346 127.5,266.5 Z"/></g>
<g><path style="opacity:1" fill="#252caa" d="M 215.5,265.5 C 212.936,269.117 209.603,271.784 205.5,273.5C 205.5,272.167 205.5,270.833 205.5,269.5C 207.167,269.5 208.833,269.5 210.5,269.5C 210.5,268.167 210.5,266.833 210.5,265.5C 212.167,265.5 213.833,265.5 215.5,265.5 Z"/></g>
<g><path style="opacity:1" fill="#4149a4" d="M 46.5,274.5 C 48.8984,274.259 50.8984,274.926 52.5,276.5C 50.1016,276.741 48.1016,276.074 46.5,274.5 Z"/></g>
<g><path style="opacity:1" fill="#494bb1" d="M 205.5,273.5 C 196.48,277.445 187.146,278.445 177.5,276.5C 177.833,276.5 178.167,276.5 178.5,276.5C 183.511,276.666 188.511,276.499 193.5,276C 197.313,274.228 201.313,273.395 205.5,273.5 Z"/></g>
<g><path style="opacity:1" fill="#1d27a6" d="M 438.5,212.5 C 438.5,233.833 438.5,255.167 438.5,276.5C 423.5,276.5 408.5,276.5 393.5,276.5C 393.5,258.5 393.5,240.5 393.5,222.5C 394.18,239.706 394.846,257.039 395.5,274.5C 408.817,275.499 422.15,275.833 435.5,275.5C 436.302,274.048 436.802,272.382 437,270.5C 437.168,250.996 437.668,231.662 438.5,212.5 Z"/></g>
<g><path style="opacity:1" fill="#2a2fb4" d="M 33.5,269.5 C 40.3513,272.064 47.3513,273.898 54.5,275C 58.0556,275.685 61.389,275.185 64.5,273.5C 67.4761,273.13 68.4761,274.13 67.5,276.5C 72.1667,276.833 76.8333,277.167 81.5,277.5C 91.0045,277.733 100.338,276.733 109.5,274.5C 104.399,276.31 99.0657,277.81 93.5,279C 82.4236,279.809 71.4236,279.642 60.5,278.5C 58.4855,277.076 56.1522,276.41 53.5,276.5C 53.1667,276.5 52.8333,276.5 52.5,276.5C 50.8984,274.926 48.8984,274.259 46.5,274.5C 41.728,273.801 37.3947,272.134 33.5,269.5 Z"/></g>
<g><path style="opacity:1" fill="#7382cd" d="M 331.5,275.5 C 332.043,275.56 332.376,275.893 332.5,276.5C 320.006,277.825 307.673,277.825 295.5,276.5C 307.678,276.828 319.678,276.495 331.5,275.5 Z"/></g>
<g><path style="opacity:1" fill="#6c77c8" d="M 392.5,212.5 C 393.479,215.625 393.813,218.958 393.5,222.5C 393.5,240.5 393.5,258.5 393.5,276.5C 408.5,276.5 423.5,276.5 438.5,276.5C 423.342,277.496 408.009,277.83 392.5,277.5C 392.5,255.833 392.5,234.167 392.5,212.5 Z"/></g>
<g><path style="opacity:1" fill="#656eca" d="M 53.5,276.5 C 56.1522,276.41 58.4855,277.076 60.5,278.5C 57.8478,278.59 55.5145,277.924 53.5,276.5 Z"/></g>
</svg>
